<?xml version="1.0" encoding="iso-8859-1"?>
<!-- Generator: Adobe Illustrator 19.0.0, SVG Export Plug-In . SVG Version: 6.00 Build 0)  -->
<svg version="1.1" id="Capa_1" xmlns="http://www.w3.org/2000/svg" xmlns:xlink="http://www.w3.org/1999/xlink" x="0px" y="0px"
	 viewBox="0 0 511.999 511.999" style="enable-background:new 0 0 511.999 511.999;" xml:space="preserve">
<path style="fill:#B0DBFF;" d="M490.78,255.998c0,1.96-0.3,3.92-0.9,5.81l-41.34,127.22c-0.62,1.78-1.5,3.46-2.6,4.97
	c-1.18,1.62-2.62,3.06-4.26,4.26l-107.76,78.29c-1.64,1.19-3.46,2.11-5.37,2.74c-1.91,0.62-3.91,0.94-5.95,0.94H189.4
	c-2.04,0-4.04-0.32-5.95-0.94c-1.91-0.63-3.73-1.55-5.37-2.74l-107.89-78.39c-1.59-1.18-2.98-2.58-4.13-4.16
	c-1.1-1.51-1.98-3.19-2.6-4.97l-41.34-127.22c-0.6-1.89-0.9-3.85-0.9-5.81c0-2.01,0.32-4.02,0.94-5.95l41.16-126.68
	c0.63-1.93,1.56-3.75,2.74-5.37c1.15-1.58,2.54-2.98,4.13-4.16l107.89-78.39c1.64-1.19,3.46-2.11,5.37-2.74
	c1.91-0.62,3.91-0.94,5.95-0.94h133.2c2.04,0,4.04,0.32,5.95,0.94c1.91,0.63,3.73,1.55,5.37,2.74l107.89,78.39
	c1.59,1.18,2.98,2.58,4.13,4.16c1.12,1.54,2.01,3.25,2.64,5.07l41.3,127.12C490.48,252.078,490.78,254.038,490.78,255.998z"/>
<g>
	<path style="fill:#0087FF;" d="M445.94,117.998l-59.73,43.4l-12.76,9.27l-72.59-52.74l4.87-15h0.01l22.81-70.22
		c1.91,0.63,3.73,1.55,5.37,2.74l107.89,78.39C443.4,115.018,444.79,116.418,445.94,117.998z"/>
	<path style="fill:#0087FF;" d="M490.78,255.998c0,1.96-0.3,3.92-0.9,5.81l-41.34,127.22c-0.62,1.78-1.5,3.46-2.6,4.97l-59.73-43.39
		l-12.76-9.27l27.73-85.34L490.78,255.998L490.78,255.998z"/>
</g>
<path style="fill:#B0DBFF;" d="M490.78,255.998h-89.6l-27.73-85.33l12.76-9.27l59.73-43.4c1.12,1.54,2.01,3.25,2.64,5.07
	l41.3,127.12C490.48,252.078,490.78,254.038,490.78,255.998z"/>
<polygon style="fill:#55B7F9;" points="206.263,409.073 125.787,350.603 95.048,255.999 125.787,161.393 206.263,102.924 
	305.737,102.924 386.213,161.393 416.952,255.999 386.213,350.603 305.737,409.073 "/>
<g>
	<path style="fill:#0087FF;" d="M211.14,117.928l-72.59,52.74l-12.76-9.27l-59.73-43.4c1.15-1.58,2.54-2.98,4.13-4.16l107.89-78.39
		c1.64-1.19,3.46-2.11,5.37-2.74l22.81,70.22h0.01L211.14,117.928z"/>
	<path style="fill:#0087FF;" d="M138.55,341.338l-12.76,9.27l-59.73,43.39c-1.1-1.51-1.98-3.19-2.6-4.97l-41.34-127.22
		c-0.6-1.89-0.9-3.85-0.9-5.81h89.6L138.55,341.338z"/>
</g>
<path style="fill:#B0DBFF;" d="M211.14,394.078l-4.88,15l-22.81,70.21c-1.91-0.63-3.73-1.55-5.37-2.74l-107.89-78.39
	c-1.59-1.18-2.98-2.58-4.13-4.16l59.73-43.39l12.76-9.27L211.14,394.078z"/>
<path style="fill:#0087FF;" d="M328.55,479.288c-1.91,0.62-3.91,0.94-5.95,0.94H189.4c-2.04,0-4.04-0.32-5.95-0.94l22.81-70.21
	l4.88-15h89.72l4.88,15L328.55,479.288z"/>
<g>
	<polygon style="fill:#005FD1;" points="110.82,255.998 138.55,341.338 125.79,350.608 95.05,255.998 	"/>
	<polygon style="fill:#005FD1;" points="211.14,117.928 138.55,170.668 125.79,161.398 206.26,102.928 206.27,102.928 	"/>
	<polygon style="fill:#005FD1;" points="300.86,394.078 305.74,409.078 206.26,409.078 211.14,394.078 	"/>
	<polygon style="fill:#005FD1;" points="373.45,170.668 300.86,117.928 305.73,102.928 305.74,102.928 386.21,161.398 	"/>
	<polygon style="fill:#005FD1;" points="416.95,255.998 386.21,350.608 373.45,341.338 401.18,255.998 	"/>
</g>
<g>
	<polygon style="fill:#A7F9E9;" points="211.137,394.073 138.547,341.333 110.82,255.998 138.547,170.664 211.137,117.924 
		300.863,117.924 373.453,170.664 401.18,255.998 373.453,341.333 300.863,394.073 	"/>
	<path style="fill:#A7F9E9;" d="M473.467,46.032c-1.919,0-3.839-0.732-5.303-2.196c-2.929-2.93-2.929-7.678,0-10.607l31.033-31.033
		c2.929-2.928,7.678-2.928,10.606,0c2.929,2.93,2.929,7.678,0,10.607L478.77,43.836C477.306,45.3,475.386,46.032,473.467,46.032z"/>
	<path style="fill:#A7F9E9;" d="M7.5,511.999c-1.919,0-3.839-0.732-5.303-2.196c-2.929-2.93-2.929-7.678,0-10.607l31.033-31.033
		c2.929-2.928,7.678-2.928,10.606,0c2.929,2.93,2.929,7.678,0,10.607l-31.033,31.033C11.339,511.266,9.42,511.999,7.5,511.999z"/>
	<path style="fill:#A7F9E9;" d="M504.5,511.999c-1.919,0-3.839-0.732-5.303-2.196l-31.033-31.033c-2.929-2.93-2.929-7.678,0-10.607
		c2.929-2.928,7.678-2.928,10.606,0l31.033,31.033c2.929,2.93,2.929,7.678,0,10.607C508.339,511.266,506.42,511.999,504.5,511.999z"
		/>
	<path style="fill:#A7F9E9;" d="M38.533,46.032c-1.919,0-3.839-0.732-5.303-2.196L2.197,12.803c-2.929-2.93-2.929-7.678,0-10.607
		c2.929-2.928,7.678-2.928,10.606,0l31.033,31.033c2.929,2.93,2.929,7.678,0,10.607C42.372,45.3,40.453,46.032,38.533,46.032z"/>
</g>
<g>
</g>
<g>
</g>
<g>
</g>
<g>
</g>
<g>
</g>
<g>
</g>
<g>
</g>
<g>
</g>
<g>
</g>
<g>
</g>
<g>
</g>
<g>
</g>
<g>
</g>
<g>
</g>
<g>
</g>
</svg>
