<?xml version="1.0" encoding="iso-8859-1"?>
<!-- Generator: Adobe Illustrator 19.0.0, SVG Export Plug-In . SVG Version: 6.00 Build 0)  -->
<svg version="1.1" id="Layer_1" xmlns="http://www.w3.org/2000/svg" xmlns:xlink="http://www.w3.org/1999/xlink" x="0px" y="0px"
	 viewBox="0 0 512 512" style="enable-background:new 0 0 512 512;" xml:space="preserve">
<rect x="150.069" y="97.103" style="fill:#FF6464;" width="211.862" height="317.793"/>
<rect x="150.069" style="fill:#FFB1B1;" width="211.862" height="97.103"/>
<rect x="150.069" y="414.897" style="fill:#D2555A;" width="211.862" height="97.103"/>
<rect x="361.931" y="97.103" style="fill:#FFB1B1;" width="97.103" height="317.793"/>
<polygon style="fill:#FFD8D8;" points="361.931,0 459.034,97.103 361.931,97.103 "/>
<polygon style="fill:#FF8B8B;" points="459.034,414.897 361.931,512 361.931,414.897 "/>
<rect x="52.966" y="97.103" style="fill:#D2555A;" width="97.103" height="317.793"/>
<polygon style="fill:#FF6464;" points="150.069,512 52.966,414.897 150.069,414.897 "/>
<polygon style="fill:#FF8B8B;" points="52.966,97.103 150.069,0 150.069,97.103 "/>
<g>
	<path style="fill:#FFFFFF;" d="M390.817,99.329c-17.301-3.945-30.92-17.564-34.863-34.865c-0.297-1.303-2.022-1.303-2.319,0
		c-3.944,17.301-17.564,30.92-34.863,34.865c-1.303,0.297-1.303,2.022,0,2.319c17.301,3.944,30.92,17.562,34.863,34.863
		c0.297,1.303,2.022,1.303,2.319,0c3.944-17.301,17.564-30.92,34.863-34.863C392.119,101.352,392.119,99.626,390.817,99.329z"/>
	<path style="fill:#FFFFFF;" d="M341.557,154.094c-13.58-3.518-24.273-14.209-27.789-27.789c-0.353-1.364-2.119-1.364-2.472,0
		c-3.517,13.58-14.209,24.273-27.789,27.789c-1.364,0.353-1.364,2.119,0,2.472c13.58,3.517,24.273,14.209,27.789,27.789
		c0.353,1.364,2.119,1.364,2.472,0c3.518-13.581,14.209-24.273,27.789-27.789C342.922,156.213,342.922,154.447,341.557,154.094z"/>
</g>
<g>
</g>
<g>
</g>
<g>
</g>
<g>
</g>
<g>
</g>
<g>
</g>
<g>
</g>
<g>
</g>
<g>
</g>
<g>
</g>
<g>
</g>
<g>
</g>
<g>
</g>
<g>
</g>
<g>
</g>
</svg>
